<svg width="24" height="24" viewBox="0 0 24 24" fill="none" xmlns="http://www.w3.org/2000/svg">
<path d="M9 21H7C4.79086 21 3 19.1391 3 16.8436V10.3052C3 8.85177 3.73061 7.50394 4.92679 6.75063L9.92679 3.60186C11.2011 2.79938 12.7989 2.79938 14.0732 3.60186L19.0732 6.75063C20.2694 7.50394 21 8.85177 21 10.3052V16.8436C21 19.1391 19.2091 21 17 21H15M9 21V16.8436C9 15.1219 10.3431 13.7263 12 13.7263C13.6569 13.7263 15 15.1219 15 16.8436V21M9 21H15" stroke="currentColor" stroke-width="1.8" stroke-linecap="round" stroke-linejoin="round"/>
</svg>
