<svg width="20" height="20" viewBox="0 0 20 20" fill="none" xmlns="http://www.w3.org/2000/svg">
<path d="M7.26642 8.16635C7.26642 8.66341 7.66936 9.06635 8.16642 9.06635C8.66347 9.06635 9.06642 8.66341 9.06642 8.16635H7.26642ZM9.10003 11.2223C9.10003 11.7194 9.50298 12.1223 10 12.1223C10.4971 12.1223 10.9 11.7194 10.9 11.2223H9.10003ZM9.33136 13.0708C8.99866 13.4401 9.02833 14.0092 9.39762 14.3419C9.76691 14.6746 10.336 14.6449 10.6687 14.2756L9.33136 13.0708ZM10.6748 14.2688C11.0075 13.8995 10.9778 13.3305 10.6085 12.9978C10.2393 12.6651 9.67017 12.6947 9.33747 13.064L10.6748 14.2688ZM10 19.9C15.4676 19.9 19.9 15.4676 19.9 10H18.1C18.1 14.4735 14.4735 18.1 10 18.1V19.9ZM19.9 10C19.9 4.53238 15.4676 0.1 10 0.1V1.9C14.4735 1.9 18.1 5.52649 18.1 10H19.9ZM10 0.1C4.53238 0.1 0.1 4.53238 0.1 10H1.9C1.9 5.52649 5.52649 1.9 10 1.9V0.1ZM0.1 10C0.1 15.4676 4.53238 19.9 10 19.9V18.1C5.52649 18.1 1.9 14.4735 1.9 10H0.1ZM9.06642 8.16635C9.06642 7.89076 9.16418 7.74243 9.27395 7.64929C9.40329 7.53955 9.6078 7.46193 9.84723 7.46193C10.0867 7.46193 10.2912 7.53955 10.4205 7.64929C10.5303 7.74243 10.628 7.89077 10.628 8.16635H12.428C12.428 7.37232 12.1056 6.71845 11.5851 6.27678C11.0841 5.85171 10.4482 5.66193 9.84724 5.66193C9.24625 5.66193 8.61036 5.85171 8.10939 6.27677C7.58886 6.71844 7.26642 7.37232 7.26642 8.16635H9.06642ZM10.628 8.16635C10.628 8.3793 10.5805 8.47138 10.5405 8.53138C10.4743 8.63058 10.3857 8.7094 10.162 8.91076C9.96459 9.0884 9.67642 9.35262 9.45556 9.7428C9.22589 10.1485 9.10003 10.6299 9.10003 11.2223H10.9C10.9 10.8979 10.9652 10.7299 11.022 10.6295C11.0877 10.5135 11.1815 10.4149 11.3661 10.2487C11.5244 10.1063 11.8178 9.86041 12.0381 9.52986C12.2846 9.16012 12.428 8.7174 12.428 8.16635H10.628ZM10.6687 14.2756L10.6748 14.2688L9.33747 13.064L9.33136 13.0708L10.6687 14.2756Z" fill="currentColor"/>
</svg>
